HIERARCHY
ROOT Hips
{
	OFFSET 0.000000 71.427986 0.000000
	CHANNELS 6 Xposition Yposition Zposition Xrotation Yrotation Zrotation
	JOINT Pelvis
	{
		OFFSET 0.000000 0.000000 0.000000
		CHANNELS 3 Xrotation Yrotation Zrotation
		JOINT LeftUpLeg
		{
			OFFSET 6.797100 -2.508499 -1.318700
			CHANNELS 3 Xrotation Yrotation Zrotation
			JOINT LeftLeg
			{
				OFFSET 0.069008 -29.241863 0.690200
				CHANNELS 3 Xrotation Yrotation Zrotation
				JOINT LeftFoot
				{
					OFFSET -0.069008 -29.568123 -0.266800
					CHANNELS 3 Xrotation Yrotation Zrotation
					JOINT LeftToeBase
					{
						OFFSET 3.145500 -8.631000 16.059900
						CHANNELS 3 Xrotation Yrotation Zrotation
						End Site
						{
							OFFSET 0.000000 18.501587 0.000000
						}
					}
				}
			}
			JOINT Left_ShortSleeve
			{
				OFFSET 0.265923 -10.480953 1.153800
				CHANNELS 3 Xrotation Yrotation Zrotation
				End Site
				{
					OFFSET 1.725763 19.823879 0.000000
				}
			}
		}
		JOINT RightUpLeg
		{
			OFFSET -6.797100 -2.508499 -1.318700
			CHANNELS 3 Xrotation Yrotation Zrotation
			JOINT RightLeg
			{
				OFFSET -0.082453 -29.241932 0.688000
				CHANNELS 3 Xrotation Yrotation Zrotation
				JOINT RightFoot
				{
					OFFSET 0.082453 -29.568058 -0.264600
					CHANNELS 3 Xrotation Yrotation Zrotation
					JOINT RightToeBase
					{
						OFFSET -3.115300 -8.682800 16.113400
						CHANNELS 3 Xrotation Yrotation Zrotation
						End Site
						{
							OFFSET 0.000000 18.567114 0.000000
						}
					}
				}
			}
			JOINT Right_ShortSleeve
			{
				OFFSET -0.265923 -10.480953 1.153800
				CHANNELS 3 Xrotation Yrotation Zrotation
				End Site
				{
					OFFSET -1.725766 19.823910 0.000000
				}
			}
		}
	}
	JOINT Spine
	{
		OFFSET 0.000000 13.368103 0.470500
		CHANNELS 3 Xrotation Yrotation Zrotation
		JOINT Spine1
		{
			OFFSET 0.147000 13.837402 0.538800
			CHANNELS 3 Xrotation Yrotation Zrotation
			JOINT Spine2
			{
				OFFSET 0.168000 16.242897 -1.435500
				CHANNELS 3 Xrotation Yrotation Zrotation
				JOINT Neck
				{
					OFFSET 0.217200 18.631500 -1.679100
					CHANNELS 3 Xrotation Yrotation Zrotation
					JOINT Head
					{
						OFFSET 0.000000 6.599396 1.385900
						CHANNELS 3 Xrotation Yrotation Zrotation
						JOINT Hat
						{
							OFFSET -0.532200 27.220596 -10.096100
							CHANNELS 3 Xrotation Yrotation Zrotation
							End Site
							{
								OFFSET 0.000000 22.029861 0.000000
							}
						}
						JOINT HairD
						{
							OFFSET -10.777400 17.437393 -1.325900
							CHANNELS 3 Xrotation Yrotation Zrotation
							JOINT HairD1
							{
								OFFSET -3.290299 -11.051193 1.062200
								CHANNELS 3 Xrotation Yrotation Zrotation
								End Site
								{
									OFFSET 0.000000 11.579437 0.000000
								}
							}
						}
						JOINT HairB
						{
							OFFSET -10.777400 17.437393 1.467900
							CHANNELS 3 Xrotation Yrotation Zrotation
							JOINT HairB1
							{
								OFFSET -1.561200 -12.956299 3.590200
								CHANNELS 3 Xrotation Yrotation Zrotation
								End Site
								{
									OFFSET 0.000000 13.534866 0.000000
								}
							}
						}
						JOINT HairA
						{
							OFFSET 9.713100 17.437393 1.467900
							CHANNELS 3 Xrotation Yrotation Zrotation
							JOINT HairA1
							{
								OFFSET 1.561200 -12.956299 3.590200
								CHANNELS 3 Xrotation Yrotation Zrotation
								End Site
								{
									OFFSET 0.000000 13.534866 0.000000
								}
							}
						}
						JOINT HairC
						{
							OFFSET 9.713100 17.437393 -1.325900
							CHANNELS 3 Xrotation Yrotation Zrotation
							JOINT HairC1
							{
								OFFSET 3.290300 -11.051193 1.062200
								CHANNELS 3 Xrotation Yrotation Zrotation
								End Site
								{
									OFFSET 0.000000 11.579437 0.000000
								}
							}
						}
					}
				}
				JOINT LeftShoulder
				{
					OFFSET 5.101800 15.108002 -2.763700
					CHANNELS 3 Xrotation Yrotation Zrotation
					JOINT LeftArm
					{
						OFFSET 9.825497 2.506317 -1.597400
						CHANNELS 3 Xrotation Yrotation Zrotation
						JOINT LeftForeArm
						{
							OFFSET 21.966244 0.000000 0.000000
							CHANNELS 3 Xrotation Yrotation Zrotation
							JOINT LeftHand
							{
								OFFSET 33.879036 0.000000 0.000000
								CHANNELS 3 Xrotation Yrotation Zrotation
								JOINT LeftHandThumb1
								{
									OFFSET 6.715286 -2.359680 3.363841
									CHANNELS 3 Xrotation Yrotation Zrotation
									JOINT LeftHandThumb2
									{
										OFFSET 2.507072 -1.447464 1.447461
										CHANNELS 3 Xrotation Yrotation Zrotation
										JOINT LeftHandThumb3
										{
											OFFSET 2.898338 -1.673355 1.673357
											CHANNELS 3 Xrotation Yrotation Zrotation
											End Site
											{
												OFFSET -0.295959 3.727692 -0.131651
											}
										}
									}
								}
								JOINT LeftHandIndex1
								{
									OFFSET 14.190811 -0.254547 3.840278
									CHANNELS 3 Xrotation Yrotation Zrotation
									JOINT LeftHandIndex2
									{
										OFFSET 3.551727 0.000000 -0.000000
										CHANNELS 3 Xrotation Yrotation Zrotation
										JOINT LeftHandIndex3
										{
											OFFSET 2.894196 0.000000 0.000000
											CHANNELS 3 Xrotation Yrotation Zrotation
											End Site
											{
												OFFSET -1.000603 2.690872 0.366626
											}
										}
									}
								}
								JOINT LeftHandMiddle1
								{
									OFFSET 13.776489 0.000000 0.000000
									CHANNELS 3 Xrotation Yrotation Zrotation
									JOINT LeftHandMiddle2
									{
										OFFSET 3.438232 0.000000 0.000000
										CHANNELS 3 Xrotation Yrotation Zrotation
										JOINT LeftHandMiddle3
										{
											OFFSET 3.691551 0.000000 0.000000
											CHANNELS 3 Xrotation Yrotation Zrotation
											End Site
											{
												OFFSET -1.082298 3.499527 0.457670
											}
										}
									}
								}
								JOINT LeftHandRing1
								{
									OFFSET 13.966164 -0.268127 -3.067488
									CHANNELS 3 Xrotation Yrotation Zrotation
									JOINT LeftHandRing2
									{
										OFFSET 3.162567 0.000000 0.000000
										CHANNELS 3 Xrotation Yrotation Zrotation
										JOINT LeftHandRing3
										{
											OFFSET 3.324348 0.000000 0.000000
											CHANNELS 3 Xrotation Yrotation Zrotation
											End Site
											{
												OFFSET -0.861900 3.184998 0.405154
											}
										}
									}
								}
								JOINT LeftHandPinky1
								{
									OFFSET 13.131393 -0.168503 -5.746925
									CHANNELS 3 Xrotation Yrotation Zrotation
									JOINT LeftHandPinky2
									{
										OFFSET 2.849182 0.000000 0.000000
										CHANNELS 3 Xrotation Yrotation Zrotation
										JOINT LeftHandPinky3
										{
											OFFSET 2.805038 0.000000 0.000000
											CHANNELS 3 Xrotation Yrotation Zrotation
											End Site
											{
												OFFSET -0.882500 2.642609 0.325652
											}
										}
									}
								}
							}
							JOINT Left_Sleeve
							{
								OFFSET 6.592125 -0.646545 0.805568
								CHANNELS 3 Xrotation Yrotation Zrotation
								End Site
								{
									OFFSET -0.000179 20.275787 -0.000000
								}
							}
						}
					}
				}
				JOINT RightShoulder
				{
					OFFSET -5.731700 15.108002 -2.763700
					CHANNELS 3 Xrotation Yrotation Zrotation
					JOINT RightArm
					{
						OFFSET -9.825497 2.506317 -1.597400
						CHANNELS 3 Xrotation Yrotation Zrotation
						JOINT RightForeArm
						{
							OFFSET -21.966242 0.000000 0.000000
							CHANNELS 3 Xrotation Yrotation Zrotation
							JOINT RightHand
							{
								OFFSET -33.879032 0.000000 0.000000
								CHANNELS 3 Xrotation Yrotation Zrotation
								JOINT RightHandThumb1
								{
									OFFSET -6.715286 -2.359680 3.363841
									CHANNELS 3 Xrotation Yrotation Zrotation
									JOINT RightHandThumb2
									{
										OFFSET -2.507072 -1.447464 1.447461
										CHANNELS 3 Xrotation Yrotation Zrotation
										JOINT RightHandThumb3
										{
											OFFSET -2.898338 -1.673355 1.673357
											CHANNELS 3 Xrotation Yrotation Zrotation
											End Site
											{
												OFFSET 0.295959 3.727692 -0.131651
											}
										}
									}
								}
								JOINT RightHandIndex1
								{
									OFFSET -14.190811 -0.254547 3.840278
									CHANNELS 3 Xrotation Yrotation Zrotation
									JOINT RightHandIndex2
									{
										OFFSET -3.551727 0.000000 -0.000000
										CHANNELS 3 Xrotation Yrotation Zrotation
										JOINT RightHandIndex3
										{
											OFFSET -2.894196 0.000000 0.000000
											CHANNELS 3 Xrotation Yrotation Zrotation
											End Site
											{
												OFFSET 1.000603 2.690872 0.366626
											}
										}
									}
								}
								JOINT RightHandMiddle1
								{
									OFFSET -13.776489 0.000000 0.000000
									CHANNELS 3 Xrotation Yrotation Zrotation
									JOINT RightHandMiddle2
									{
										OFFSET -3.438232 0.000000 0.000000
										CHANNELS 3 Xrotation Yrotation Zrotation
										JOINT RightHandMiddle3
										{
											OFFSET -3.691551 0.000000 0.000000
											CHANNELS 3 Xrotation Yrotation Zrotation
											End Site
											{
												OFFSET 1.082298 3.499527 0.457670
											}
										}
									}
								}
								JOINT RightHandRing1
								{
									OFFSET -13.966164 -0.268127 -3.067488
									CHANNELS 3 Xrotation Yrotation Zrotation
									JOINT RightHandRing2
									{
										OFFSET -3.162567 0.000000 0.000000
										CHANNELS 3 Xrotation Yrotation Zrotation
										JOINT RightHandRing3
										{
											OFFSET -3.324348 0.000000 0.000000
											CHANNELS 3 Xrotation Yrotation Zrotation
											End Site
											{
												OFFSET 0.861900 3.184998 0.405154
											}
										}
									}
								}
								JOINT RightHandPinky1
								{
									OFFSET -13.131393 -0.168503 -5.746925
									CHANNELS 3 Xrotation Yrotation Zrotation
									JOINT RightHandPinky2
									{
										OFFSET -2.849182 0.000000 0.000000
										CHANNELS 3 Xrotation Yrotation Zrotation
										JOINT RightHandPinky3
										{
											OFFSET -2.805038 0.000000 0.000000
											CHANNELS 3 Xrotation Yrotation Zrotation
											End Site
											{
												OFFSET 0.882500 2.642609 0.325652
											}
										}
									}
								}
							}
							JOINT Right_Sleeve
							{
								OFFSET -6.592125 -0.646545 0.805568
								CHANNELS 3 Xrotation Yrotation Zrotation
								End Site
								{
									OFFSET 0.000179 20.275787 -0.000000
								}
							}
						}
					}
				}
				JOINT Bind_Right_JacketString
				{
					OFFSET -3.534800 11.969597 7.200700
					CHANNELS 3 Xrotation Yrotation Zrotation
					JOINT Bind_Right_JacketString1
					{
						OFFSET -0.319900 -6.102600 2.794100
						CHANNELS 3 Xrotation Yrotation Zrotation
						End Site
						{
							OFFSET 0.000000 6.719452 0.000000
						}
					}
				}
				JOINT Bind_Left_JacketString
				{
					OFFSET 2.904800 11.969597 7.200700
					CHANNELS 3 Xrotation Yrotation Zrotation
					JOINT Bind_Left_JacketString1
					{
						OFFSET 0.364800 -5.904503 3.186800
						CHANNELS 3 Xrotation Yrotation Zrotation
						End Site
						{
							OFFSET 0.000000 6.719513 0.000000
						}
					}
				}
				JOINT HairE
				{
					OFFSET 5.915200 17.612701 -11.592200
					CHANNELS 3 Xrotation Yrotation Zrotation
					JOINT HairE1
					{
						OFFSET 0.289200 -7.171898 -1.284500
						CHANNELS 3 Xrotation Yrotation Zrotation
						End Site
						{
							OFFSET 0.000000 7.291756 0.000000
						}
					}
				}
				JOINT HairF
				{
					OFFSET -0.864800 17.612701 -11.592200
					CHANNELS 3 Xrotation Yrotation Zrotation
					JOINT HairF1
					{
						OFFSET 0.000000 -14.087097 -2.127501
						CHANNELS 3 Xrotation Yrotation Zrotation
						End Site
						{
							OFFSET 0.000000 14.246841 0.000000
						}
					}
				}
				JOINT HairG
				{
					OFFSET -8.087700 17.612701 -11.592200
					CHANNELS 3 Xrotation Yrotation Zrotation
					JOINT HairG1
					{
						OFFSET -0.293600 -6.081398 -0.910100
						CHANNELS 3 Xrotation Yrotation Zrotation
						End Site
						{
							OFFSET 0.000000 6.156120 0.000000
						}
					}
				}
			}
		}
	}
	JOINT Pouch
	{
		OFFSET 0.000000 4.394501 10.847300
		CHANNELS 3 Xrotation Yrotation Zrotation
		End Site
		{
			OFFSET 0.000000 21.880577 0.000000
		}
	}
	JOINT Bag
	{
		OFFSET -13.229000 4.813004 -0.593300
		CHANNELS 3 Xrotation Yrotation Zrotation
		End Site
		{
			OFFSET 0.000000 21.880577 0.000000
		}
	}
	JOINT OccupyGuyFacialAnim_Joint
	{
		OFFSET 1.000000 -70.206398 -1.655000
		CHANNELS 3 Xrotation Yrotation Zrotation
		End Site
		{
			OFFSET 0.000000 21.880577 0.000000
		}
	}
}
MOTION
Frames: 5
Frame Time: 0.033333
-1.263914 69.308495 1.892990 -3.965925 -8.584469 -3.045861 -0.000000 -0.000001 -0.000000 -17.085489 14.479409 15.202480 15.200386 -1.379201 3.378119 3.071395 0.334858 -10.262278 0.000000 -0.000000 -0.000000 0.000000 0.000001 -0.000000 0.634396 -10.133114 5.227732 22.507767 -3.223461 1.454337 -18.974972 0.562601 -3.716872 -0.000000 0.000000 0.000000 -0.000000 0.000001 -0.000000 -1.383350 -0.559585 3.486198 -0.954356 -0.894616 4.154671 -0.934387 -0.838377 4.176936 3.056859 -0.267143 -2.609577 14.468470 -0.403713 -9.152523 0.000001 -0.000000 -0.000000 0.000001 -0.000000 -0.000000 0.000001 -0.000000 -0.000000 0.000001 -0.000000 0.000000 0.000000 -0.000000 0.000000 0.000001 -0.000000 0.000000 0.000000 -0.000000 0.000000 0.000001 -0.000000 -0.000000 0.000001 -0.000000 -0.000000 0.299168 7.406760 -6.431487 13.101181 -9.272188 -75.693584 -0.000019 -24.834744 -0.000026 -3.223441 0.316840 -7.435478 1.517255 13.006211 9.166412 -0.621526 20.107882 9.779305 -0.000000 -0.000000 -0.000001 -0.039924 0.134036 -7.390374 0.689348 3.007849 -25.811369 0.000001 0.000001 -0.000002 0.136655 1.367795 -11.497234 0.846410 3.312489 -28.659433 0.000000 0.000000 -0.000001 0.087563 1.194445 -13.865702 1.041653 3.646455 -31.875629 -0.000001 0.000000 -0.000006 0.722801 3.603315 -14.918077 0.396706 -1.756621 -19.931750 -0.000001 0.000001 0.000001 0.000001 0.000001 -0.000001 0.583950 -2.041775 10.260296 13.917653 1.330887 60.479597 0.000002 16.987558 -0.000005 -12.081382 -5.134755 1.833610 -4.816600 -10.969263 -5.385328 8.660689 -14.869207 -15.771402 0.000000 0.000000 0.000002 0.103098 -1.196304 9.479707 0.180726 -1.578090 13.065463 -0.000001 -0.000001 0.000000 0.134135 -1.361926 11.276780 0.597518 -2.824717 23.882991 0.000001 -0.000001 -0.000003 0.137159 -1.381433 12.325338 0.630713 -2.898438 24.547934 -0.000000 -0.000001 -0.000004 0.036984 -0.820993 10.033868 0.603780 -2.838812 24.009903 -0.000001 0.000001 0.000001 -0.000000 -0.000001 -0.000000 0.000000 -0.000000 0.000000 0.000000 -0.000000 0.000000 0.000000 -0.000000 0.000000 0.000000 -0.000000 0.000000 0.000000 -0.000000 0.000000 0.000000 -0.000000 0.000000 0.000000 -0.000000 0.000000 0.000000 -0.000000 0.000000 0.000000 -0.000000 0.000000 0.000000 -0.000000 0.000000 -0.000000 -0.000001 -0.000000 -0.000000 -0.000001 -0.000000 -0.000000 -0.000001 -0.000000 
-1.275240 69.303474 1.890918 -3.986777 -8.538755 -3.136871 0.000000 0.000000 -0.000000 -17.193883 14.486855 15.329475 15.346141 -1.492820 3.386572 3.012562 0.340080 -10.267723 0.000000 0.000000 0.000000 0.000001 -0.000000 -0.000001 0.702986 -10.060743 5.370470 22.441331 -3.348635 1.431393 -18.948645 0.558308 -3.696869 0.000000 0.000002 0.000000 0.000001 0.000001 -0.000000 -1.352788 -0.574800 3.551197 -0.935962 -0.924872 4.244915 -0.915065 -0.868559 4.267129 3.122578 -0.288703 -2.704873 13.722178 -0.609271 -9.112324 0.000001 0.000000 -0.000000 0.000001 0.000000 -0.000000 0.000001 0.000000 -0.000000 0.000001 0.000000 0.000000 -0.000000 -0.000000 0.000000 0.000001 0.000000 0.000000 -0.000000 -0.000000 0.000000 0.000001 0.000000 -0.000000 0.000001 0.000000 -0.000000 0.326353 7.348233 -6.683039 12.839943 -9.122746 -75.638826 -0.000012 -24.238847 -0.000021 -2.892977 -0.050344 -7.422472 1.517255 13.006207 9.166411 -0.621526 20.107881 9.779308 -0.000001 0.000001 0.000001 -0.039924 0.134036 -7.390377 0.689349 3.007851 -25.811370 0.000003 0.000001 0.000000 0.136655 1.367795 -11.497236 0.846408 3.312489 -28.659436 -0.000001 0.000000 -0.000003 0.088526 1.199865 -13.911156 1.055056 3.667885 -32.085879 -0.000001 0.000002 -0.000001 0.731048 3.617475 -15.048485 0.406718 -1.729239 -20.173056 0.000000 -0.000001 0.000001 -0.000000 0.000001 -0.000002 0.590196 -1.840806 10.398627 13.636458 1.096652 60.190530 -0.000002 16.515998 0.000013 -12.167611 -4.840187 1.746551 -4.799693 -10.885235 -5.422623 8.611100 -15.096514 -15.578161 -0.000001 -0.000001 0.000002 0.098725 -1.170156 9.447828 0.186337 -1.602075 13.267773 -0.000001 0.000000 -0.000001 0.132994 -1.356158 11.230134 0.608793 -2.850014 24.110791 -0.000000 0.000001 -0.000001 0.145570 -1.421143 12.507180 0.652364 -2.945320 24.972725 -0.000002 -0.000002 0.000001 0.044833 -0.879944 10.430393 0.617846 -2.870150 24.292341 0.000000 0.000002 0.000003 0.000000 0.000001 0.000000 0.000000 0.000001 -0.000001 0.000000 -0.000000 -0.000000 0.000000 0.000001 -0.000001 0.000000 0.000001 -0.000001 0.000000 0.000001 -0.000001 0.000000 -0.000000 -0.000000 0.000000 0.000001 -0.000001 0.000000 0.000001 -0.000001 0.000000 0.000001 -0.000001 0.000000 -0.000000 -0.000000 0.000000 0.000000 -0.000000 0.000000 0.000000 -0.000000 0.000000 0.000000 -0.000000 
-1.287931 69.294975 1.879038 -4.008833 -8.477079 -3.249695 -0.000000 -0.000000 0.000000 -17.346927 14.490231 15.487333 15.535718 -1.636814 3.397507 2.944151 0.346520 -10.271303 0.000000 0.000000 0.000000 0.000001 0.000000 0.000000 0.761317 -9.975683 5.542769 22.387067 -3.506794 1.410126 -18.921666 0.553681 -3.676353 0.000000 0.000000 0.000000 0.000000 0.000000 -0.000001 -1.311452 -0.594763 3.616068 -0.911281 -0.966726 4.346572 -0.889238 -0.910760 4.368632 3.242034 -0.287804 -2.830398 12.935690 -0.742650 -9.080758 -0.000000 -0.000000 0.000000 -0.000000 -0.000000 0.000000 -0.000000 -0.000000 0.000000 -0.000000 -0.000000 0.000000 -0.000000 -0.000001 0.000000 -0.000000 -0.000000 0.000000 -0.000000 -0.000001 0.000000 -0.000000 -0.000000 0.000000 -0.000000 -0.000000 0.000000 0.354732 7.225145 -6.939223 12.514937 -8.967255 -75.635199 0.000001 -23.475584 0.000000 -2.649941 -0.575784 -7.372387 1.517257 13.006207 9.166414 -0.621529 20.107881 9.779307 -0.000001 -0.000000 -0.000004 -0.039920 0.134035 -7.390378 0.689349 3.007852 -25.811370 0.000000 -0.000002 -0.000002 0.136655 1.367795 -11.497237 0.846411 3.312491 -28.659433 0.000002 -0.000001 0.000000 0.089585 1.205849 -13.961385 1.069967 3.691509 -32.318252 -0.000002 0.000001 -0.000002 0.740198 3.633106 -15.192542 0.417896 -1.699020 -20.439783 0.000001 0.000001 0.000003 0.000001 -0.000003 0.000001 0.601436 -1.569142 10.648314 13.292083 0.851515 59.808073 0.000004 15.916106 -0.000052 -12.223610 -4.497322 1.679804 -4.781346 -10.794847 -5.462733 8.559607 -15.341822 -15.369833 -0.000001 -0.000001 0.000002 0.094042 -1.142018 9.413576 0.192478 -1.627869 13.485509 0.000001 0.000000 0.000000 0.131774 -1.349955 11.179932 0.621033 -2.877183 24.355968 0.000001 -0.000000 -0.000001 0.154832 -1.463842 12.702904 0.676276 -2.996056 25.434072 -0.000002 -0.000000 -0.000005 0.053833 -0.943506 10.861066 0.633296 -2.904084 24.599041 -0.000000 0.000001 -0.000001 -0.000000 -0.000000 -0.000000 0.000000 0.000000 0.000000 0.000000 0.000000 -0.000000 0.000000 0.000000 0.000001 0.000000 0.000000 0.000001 0.000000 0.000000 0.000000 0.000000 0.000000 0.000000 0.000000 0.000000 0.000001 0.000000 0.000000 0.000001 0.000000 0.000000 0.000000 0.000000 0.000000 0.000000 -0.000000 -0.000000 0.000000 -0.000000 -0.000000 0.000000 -0.000000 -0.000000 0.000000 
-1.302994 69.283844 1.861660 -4.006724 -8.396734 -3.364423 0.000001 0.000001 -0.000000 -17.519539 14.487292 15.647227 15.688388 -1.804315 3.410268 2.923019 0.347893 -10.277698 0.000000 -0.000001 -0.000000 -0.000000 -0.000001 -0.000000 0.784711 -9.882006 5.727701 22.346077 -3.696261 1.390471 -18.898175 0.549132 -3.654438 -0.000000 0.000000 0.000000 0.000000 -0.000001 0.000000 -1.285817 -0.623167 3.663570 -0.902434 -1.026397 4.441574 -0.879013 -0.971000 4.463626 3.388425 -0.263027 -2.963338 12.161263 -0.765313 -9.056779 -0.000000 -0.000000 0.000000 -0.000000 -0.000000 0.000000 -0.000000 -0.000000 0.000000 -0.000000 -0.000000 -0.000000 -0.000000 0.000001 0.000000 -0.000000 -0.000000 -0.000000 -0.000000 0.000001 0.000000 -0.000000 -0.000000 0.000000 -0.000000 -0.000000 0.000000 0.382358 7.014191 -7.181314 12.161101 -8.822720 -75.676064 -0.000004 -22.604894 -0.000002 -2.560595 -1.222089 -7.282669 1.517261 13.006211 9.166410 -0.621527 20.107882 9.779305 0.000001 -0.000000 -0.000001 -0.039921 0.134039 -7.390375 0.689349 3.007858 -25.811370 0.000001 -0.000001 0.000001 0.136657 1.367798 -11.497237 0.846409 3.312488 -28.659433 -0.000000 -0.000000 -0.000001 0.090728 1.212362 -14.016026 1.086297 3.717143 -32.570990 -0.000002 0.000002 0.000001 0.750200 3.650086 -15.349267 0.430222 -1.666197 -20.729851 -0.000001 -0.000002 0.000001 0.000001 0.000001 -0.000001 0.616145 -1.236352 11.000340 12.955842 0.680223 59.342698 0.000002 15.191652 -0.000044 -12.166209 -4.140283 1.649456 -4.761679 -10.698683 -5.505411 8.506973 -15.603729 -15.147669 -0.000001 0.000000 -0.000001 0.089088 -1.112055 9.377080 0.199115 -1.655302 13.717281 -0.000002 -0.000000 0.000002 0.130465 -1.343341 11.126479 0.634203 -2.906061 24.616890 0.000000 0.000001 -0.000001 0.164922 -1.509233 12.911206 0.702363 -3.050240 25.928805 0.000001 -0.000000 0.000002 0.064040 -1.011216 11.322854 0.650062 -2.940383 24.927877 -0.000002 0.000001 0.000001 -0.000000 -0.000001 0.000000 -0.000000 -0.000001 -0.000000 -0.000000 0.000001 -0.000000 -0.000000 -0.000001 0.000000 -0.000000 -0.000001 0.000000 -0.000000 -0.000001 -0.000000 -0.000000 0.000001 0.000000 -0.000000 -0.000001 0.000000 -0.000000 -0.000001 0.000000 -0.000000 -0.000001 -0.000000 -0.000000 0.000001 0.000000 0.000001 0.000001 -0.000000 0.000001 0.000001 -0.000000 0.000001 0.000001 -0.000000 
-1.321258 69.270020 1.845662 -3.960957 -8.299890 -3.475002 -0.000000 0.000000 0.000000 -17.738633 14.469759 15.810051 15.839212 -1.981779 3.419866 2.913082 0.347865 -10.284675 0.000000 0.000000 0.000000 0.000001 0.000001 -0.000000 0.761380 -9.778862 5.922360 22.313395 -3.914757 1.370823 -18.881243 0.545062 -3.629244 -0.000000 -0.000000 -0.000000 -0.000000 -0.000002 -0.000000 -1.297979 -0.661287 3.694713 -0.917420 -1.102102 4.527249 -0.892457 -1.046477 4.549786 3.518350 -0.223745 -3.079760 11.352644 -0.687981 -9.027087 -0.000000 0.000001 -0.000000 -0.000000 0.000001 -0.000000 -0.000000 0.000001 -0.000000 -0.000000 0.000001 -0.000000 -0.000000 0.000001 -0.000000 -0.000000 0.000001 -0.000000 -0.000000 0.000001 -0.000000 -0.000000 0.000001 -0.000000 -0.000000 0.000001 -0.000000 0.409984 6.727749 -7.423516 11.802839 -8.730174 -75.741846 -0.000001 -21.689167 0.000006 -2.600018 -1.932086 -7.157961 1.517259 13.006208 9.166413 -0.621530 20.107881 9.779306 0.000000 -0.000001 -0.000005 -0.039921 0.134033 -7.390375 0.689350 3.007852 -25.811370 0.000003 -0.000001 -0.000002 0.136655 1.367793 -11.497235 0.846409 3.312488 -28.659433 0.000003 0.000002 -0.000004 0.091983 1.219350 -14.074681 1.103952 3.744580 -32.842387 -0.000001 0.000001 0.000000 0.760993 3.668269 -15.517556 0.443650 -1.631029 -21.041337 -0.000002 -0.000000 0.000003 -0.000001 0.000000 -0.000001 0.629668 -0.845956 11.387899 12.686673 0.650347 58.847783 -0.000001 14.344651 -0.000017 -11.961690 -3.740713 1.647336 -4.740764 -10.597339 -5.550342 8.453881 -15.880757 -14.912996 0.000001 0.000001 0.000001 0.083915 -1.080463 9.338638 0.206239 -1.684190 13.961652 0.000002 0.000001 0.000000 0.129098 -1.336375 11.070177 0.648223 -2.936425 24.892078 0.000000 0.000001 -0.000001 0.175812 -1.557043 13.130936 0.730554 -3.107473 26.453632 -0.000001 -0.000001 -0.000004 0.075508 -1.082658 11.812873 0.668070 -2.978773 25.276735 -0.000000 0.000001 0.000001 -0.000000 0.000001 0.000001 -0.000001 0.000002 -0.000001 -0.000001 0.000001 -0.000002 -0.000001 0.000002 -0.000000 -0.000001 0.000002 -0.000000 -0.000001 0.000002 -0.000001 -0.000001 0.000001 -0.000001 -0.000001 0.000002 -0.000000 -0.000001 0.000002 -0.000000 -0.000001 0.000002 -0.000001 -0.000001 0.000001 -0.000001 -0.000000 0.000000 0.000000 -0.000000 0.000000 0.000000 -0.000000 0.000000 0.000000 
